<?xml version="1.0" standalone="no"?>
<!DOCTYPE svg PUBLIC "-//W3C//DTD SVG 20010904//EN"
 "http://www.w3.org/TR/2001/REC-SVG-20010904/DTD/svg10.dtd">
<svg version="1.0" xmlns="http://www.w3.org/2000/svg"
 width="512.000000pt" height="512.000000pt" viewBox="0 0 512.000000 512.000000"
 preserveAspectRatio="xMidYMid meet">

<g transform="translate(0.000000,512.000000) scale(0.100000,-0.100000)"
fill="#000000" stroke="none">
<path d="M2315 5109 c-800 -83 -1501 -518 -1927 -1196 -398 -632 -495 -1432
-262 -2143 89 -270 213 -509 399 -766 8 -11 -52 -76 -258 -282 l-267 -267 227
-228 228 -227 267 267 c206 206 271 266 282 258 428 -309 847 -470 1336 -514
705 -64 1430 182 1944 659 458 425 728 946 818 1575 16 116 16 501 0 625 -60
455 -223 856 -506 1245 -12 16 89 127 349 385 l176 175 -228 222 -228 221
-268 -266 c-205 -205 -270 -265 -281 -257 -80 58 -258 173 -326 210 -268 147
-594 253 -905 295 -112 15 -462 21 -570 9z m410 -679 c295 -28 578 -122 823
-274 50 -31 92 -58 92 -59 0 -1 -589 -591 -1309 -1311 l-1308 -1308 -58 93
c-427 689 -363 1572 160 2199 386 462 1001 716 1600 660z m1431 -882 c433
-700 358 -1604 -186 -2225 -439 -504 -1130 -736 -1785 -602 -207 42 -434 132
-614 244 l-93 58 1308 1308 c720 720 1310 1309 1311 1309 1 0 28 -42 59 -92z"/>
</g>
</svg>
